<?xml version="1.0" encoding="UTF-8" standalone="no"?>
<!-- Created with Inkscape (http://www.inkscape.org/) -->

<svg
   xmlns:dc="http://purl.org/dc/elements/1.1/"
   xmlns:cc="http://creativecommons.org/ns#"
   xmlns:rdf="http://www.w3.org/1999/02/22-rdf-syntax-ns#"
   xmlns:svg="http://www.w3.org/2000/svg"
   xmlns="http://www.w3.org/2000/svg"
   xmlns:sodipodi="http://sodipodi.sourceforge.net/DTD/sodipodi-0.dtd"
   xmlns:inkscape="http://www.inkscape.org/namespaces/inkscape"
   width="210mm"
   height="297mm"
   viewBox="0 0 744.09448819 1052.3622047"
   id="svg2"
   version="1.1"
   inkscape:version="0.91 r13725"
   sodipodi:docname="left-page-notext.svg">
  <defs
     id="defs4">
    <clipPath
       id="clipPath3371"
       clipPathUnits="userSpaceOnUse">
      <path
         inkscape:connector-curvature="0"
         id="path3373"
         d="M 792,612 792,0 0.03,0 l 0,612 791.97,0 z" />
    </clipPath>
    <clipPath
       id="clipPath3377"
       clipPathUnits="userSpaceOnUse">
      <path
         inkscape:connector-curvature="0"
         id="path3379"
         d="M 0,0 792,0 792,612 0,612 0,0 Z" />
    </clipPath>
    <clipPath
       id="clipPath3393"
       clipPathUnits="userSpaceOnUse">
      <path
         inkscape:connector-curvature="0"
         id="path3395"
         d="M 0,0 792,0 792,612 0,612 0,0 Z" />
    </clipPath>
    <clipPath
       id="clipPath3501"
       clipPathUnits="userSpaceOnUse">
      <path
         inkscape:connector-curvature="0"
         id="path3503"
         d="m 294.565,177.546 -53.89,53.892 53.89,53.89 53.893,-53.89 -53.893,-53.892" />
    </clipPath>
    <clipPath
       id="clipPath3507"
       clipPathUnits="userSpaceOnUse">
      <path
         inkscape:connector-curvature="0"
         id="path3509"
         d="M 0,0 792,0 792,612 0,612 0,0 Z" />
    </clipPath>
    <linearGradient
       id="linearGradient3513"
       spreadMethod="pad"
       gradientTransform="matrix(1e-6,-107.782,-107.782,-1e-6,294.566,285.329)"
       gradientUnits="userSpaceOnUse"
       y2="0"
       x2="1"
       y1="0"
       x1="0">
      <stop
         id="stop3515"
         offset="0"
         style="stop-opacity:1;stop-color:#6ebee5" />
      <stop
         id="stop3517"
         offset="1"
         style="stop-opacity:1;stop-color:#1b9bd6" />
    </linearGradient>
    <clipPath
       id="clipPath3525"
       clipPathUnits="userSpaceOnUse">
      <path
         inkscape:connector-curvature="0"
         id="path3527"
         d="M 0,0 792,0 792,612 0,612 0,0 Z" />
    </clipPath>
    <clipPath
       id="clipPath3535"
       clipPathUnits="userSpaceOnUse">
      <path
         inkscape:connector-curvature="0"
         id="path3537"
         d="m 324.304,231.438 c 0,-16.426 -13.313,-29.735 -29.739,-29.735 -16.42,0 -29.736,13.309 -29.736,29.735 0,16.423 13.316,29.739 29.736,29.739 16.426,0 29.739,-13.316 29.739,-29.739" />
    </clipPath>
    <clipPath
       id="clipPath3541"
       clipPathUnits="userSpaceOnUse">
      <path
         inkscape:connector-curvature="0"
         id="path3543"
         d="M 0,0 792,0 792,612 0,612 0,0 Z" />
    </clipPath>
    <linearGradient
       id="linearGradient3547"
       spreadMethod="pad"
       gradientTransform="matrix(-3e-6,61.5017,61.5017,3e-6,294.566,201.703)"
       gradientUnits="userSpaceOnUse"
       y2="0"
       x2="1"
       y1="0"
       x1="0">
      <stop
         id="stop3549"
         offset="0"
         style="stop-opacity:1;stop-color:#7ac3e7" />
      <stop
         id="stop3551"
         offset="1"
         style="stop-opacity:1;stop-color:#1b9bd6" />
    </linearGradient>
    <clipPath
       id="clipPath3559"
       clipPathUnits="userSpaceOnUse">
      <path
         inkscape:connector-curvature="0"
         id="path3561"
         d="M 0,0 792,0 792,612 0,612 0,0 Z" />
    </clipPath>
  </defs>
  <sodipodi:namedview
     id="base"
     pagecolor="#ffffff"
     bordercolor="#666666"
     borderopacity="1.0"
     inkscape:pageopacity="0.0"
     inkscape:pageshadow="2"
     inkscape:zoom="0.49497475"
     inkscape:cx="-10.975324"
     inkscape:cy="805.84398"
     inkscape:document-units="px"
     inkscape:current-layer="layer1"
     showgrid="false"
     inkscape:window-width="1280"
     inkscape:window-height="668"
     inkscape:window-x="0"
     inkscape:window-y="0"
     inkscape:window-maximized="1" />
  <metadata
     id="metadata7">
    <rdf:RDF>
      <cc:Work
         rdf:about="">
        <dc:format>image/svg+xml</dc:format>
        <dc:type
           rdf:resource="http://purl.org/dc/dcmitype/StillImage" />
        <dc:title></dc:title>
      </cc:Work>
    </rdf:RDF>
  </metadata>
  <g
     inkscape:label="Layer 1"
     inkscape:groupmode="layer"
     id="layer1">
    <g
       id="g3365"
       transform="matrix(1.25,0,0,-1.25,-623.59018,886.64444)" />
    <path
       inkscape:connector-curvature="0"
       id="path3381"
       style="fill:#c1eafb;fill-opacity:1;fill-rule:nonzero;stroke:none"
       d="m 830.96761,128.54783 -84.8538,84.8525 -84.85375,-84.8525 84.85375,-84.853745 84.8538,84.853745" />
    <path
       inkscape:connector-curvature="0"
       id="path3383"
       style="fill:#a9bc0d;fill-opacity:1;fill-rule:nonzero;stroke:none"
       d="m 365.785,-8.58275 -84.85375,84.854 -84.8525,-84.854 84.8525,-84.8535 84.85375,84.8535" />
    <path
       inkscape:connector-curvature="0"
       id="path3385"
       style="fill:#82d5f6;fill-opacity:1;fill-rule:nonzero;stroke:none"
       d="M 270.32625,86.8775 233.2025,124.00125 196.08125,86.8775 233.2025,49.75375 270.32625,86.8775" />
    <path
       inkscape:connector-curvature="0"
       id="path3387"
       style="fill:#0491d1;fill-opacity:1;fill-rule:nonzero;stroke:none"
       d="M 222.59625,39.14875 90.01375,171.7325 -42.57,39.14875 90.0125,-93.43375 222.59625,39.14875" />
  </g>
</svg>
