<?xml version="1.0" encoding="UTF-8" standalone="no"?>
<!-- Created with Inkscape (http://www.inkscape.org/) -->

<svg
   xmlns:dc="http://purl.org/dc/elements/1.1/"
   xmlns:cc="http://creativecommons.org/ns#"
   xmlns:rdf="http://www.w3.org/1999/02/22-rdf-syntax-ns#"
   xmlns:svg="http://www.w3.org/2000/svg"
   xmlns="http://www.w3.org/2000/svg"
   xmlns:sodipodi="http://sodipodi.sourceforge.net/DTD/sodipodi-0.dtd"
   xmlns:inkscape="http://www.inkscape.org/namespaces/inkscape"
   width="210mm"
   height="297mm"
   viewBox="0 0 744.09448819 1052.3622047"
   id="svg2"
   version="1.1"
   inkscape:version="0.91 r13725"
   sodipodi:docname="left-page.svg">
  <defs
     id="defs4">
    <clipPath
       id="clipPath3371"
       clipPathUnits="userSpaceOnUse">
      <path
         inkscape:connector-curvature="0"
         id="path3373"
         d="M 792,612 792,0 0.03,0 l 0,612 791.97,0 z" />
    </clipPath>
    <clipPath
       id="clipPath3377"
       clipPathUnits="userSpaceOnUse">
      <path
         inkscape:connector-curvature="0"
         id="path3379"
         d="M 0,0 792,0 792,612 0,612 0,0 Z" />
    </clipPath>
    <clipPath
       id="clipPath3393"
       clipPathUnits="userSpaceOnUse">
      <path
         inkscape:connector-curvature="0"
         id="path3395"
         d="M 0,0 792,0 792,612 0,612 0,0 Z" />
    </clipPath>
    <clipPath
       id="clipPath3501"
       clipPathUnits="userSpaceOnUse">
      <path
         inkscape:connector-curvature="0"
         id="path3503"
         d="m 294.565,177.546 -53.89,53.892 53.89,53.89 53.893,-53.89 -53.893,-53.892" />
    </clipPath>
    <clipPath
       id="clipPath3507"
       clipPathUnits="userSpaceOnUse">
      <path
         inkscape:connector-curvature="0"
         id="path3509"
         d="M 0,0 792,0 792,612 0,612 0,0 Z" />
    </clipPath>
    <linearGradient
       id="linearGradient3513"
       spreadMethod="pad"
       gradientTransform="matrix(1e-6,-107.782,-107.782,-1e-6,294.566,285.329)"
       gradientUnits="userSpaceOnUse"
       y2="0"
       x2="1"
       y1="0"
       x1="0">
      <stop
         id="stop3515"
         offset="0"
         style="stop-opacity:1;stop-color:#6ebee5" />
      <stop
         id="stop3517"
         offset="1"
         style="stop-opacity:1;stop-color:#1b9bd6" />
    </linearGradient>
    <clipPath
       id="clipPath3525"
       clipPathUnits="userSpaceOnUse">
      <path
         inkscape:connector-curvature="0"
         id="path3527"
         d="M 0,0 792,0 792,612 0,612 0,0 Z" />
    </clipPath>
    <clipPath
       id="clipPath3535"
       clipPathUnits="userSpaceOnUse">
      <path
         inkscape:connector-curvature="0"
         id="path3537"
         d="m 324.304,231.438 c 0,-16.426 -13.313,-29.735 -29.739,-29.735 -16.42,0 -29.736,13.309 -29.736,29.735 0,16.423 13.316,29.739 29.736,29.739 16.426,0 29.739,-13.316 29.739,-29.739" />
    </clipPath>
    <clipPath
       id="clipPath3541"
       clipPathUnits="userSpaceOnUse">
      <path
         inkscape:connector-curvature="0"
         id="path3543"
         d="M 0,0 792,0 792,612 0,612 0,0 Z" />
    </clipPath>
    <linearGradient
       id="linearGradient3547"
       spreadMethod="pad"
       gradientTransform="matrix(-3e-6,61.5017,61.5017,3e-6,294.566,201.703)"
       gradientUnits="userSpaceOnUse"
       y2="0"
       x2="1"
       y1="0"
       x1="0">
      <stop
         id="stop3549"
         offset="0"
         style="stop-opacity:1;stop-color:#7ac3e7" />
      <stop
         id="stop3551"
         offset="1"
         style="stop-opacity:1;stop-color:#1b9bd6" />
    </linearGradient>
    <clipPath
       id="clipPath3559"
       clipPathUnits="userSpaceOnUse">
      <path
         inkscape:connector-curvature="0"
         id="path3561"
         d="M 0,0 792,0 792,612 0,612 0,0 Z" />
    </clipPath>
  </defs>
  <sodipodi:namedview
     id="base"
     pagecolor="#ffffff"
     bordercolor="#666666"
     borderopacity="1.0"
     inkscape:pageopacity="0.0"
     inkscape:pageshadow="2"
     inkscape:zoom="0.49497475"
     inkscape:cx="368.84203"
     inkscape:cy="805.84398"
     inkscape:document-units="px"
     inkscape:current-layer="layer1"
     showgrid="false"
     inkscape:window-width="1280"
     inkscape:window-height="668"
     inkscape:window-x="0"
     inkscape:window-y="0"
     inkscape:window-maximized="1" />
  <metadata
     id="metadata7">
    <rdf:RDF>
      <cc:Work
         rdf:about="">
        <dc:format>image/svg+xml</dc:format>
        <dc:type
           rdf:resource="http://purl.org/dc/dcmitype/StillImage" />
        <dc:title></dc:title>
      </cc:Work>
    </rdf:RDF>
  </metadata>
  <g
     inkscape:label="Layer 1"
     inkscape:groupmode="layer"
     id="layer1">
    <g
       id="g3365"
       transform="matrix(1.25,0,0,-1.25,-623.59018,886.64444)" />
    <path
       inkscape:connector-curvature="0"
       id="path3381"
       style="fill:#c1eafb;fill-opacity:1;fill-rule:nonzero;stroke:none"
       d="m 830.96761,128.54783 -84.8538,84.8525 -84.85375,-84.8525 84.85375,-84.853745 84.8538,84.853745" />
    <path
       inkscape:connector-curvature="0"
       id="path3383"
       style="fill:#a9bc0d;fill-opacity:1;fill-rule:nonzero;stroke:none"
       d="m 365.785,-8.58275 -84.85375,84.854 -84.8525,-84.854 84.8525,-84.8535 84.85375,84.8535" />
    <path
       inkscape:connector-curvature="0"
       id="path3385"
       style="fill:#82d5f6;fill-opacity:1;fill-rule:nonzero;stroke:none"
       d="M 270.32625,86.8775 233.2025,124.00125 196.08125,86.8775 233.2025,49.75375 270.32625,86.8775" />
    <path
       inkscape:connector-curvature="0"
       id="path3387"
       style="fill:#0491d1;fill-opacity:1;fill-rule:nonzero;stroke:none"
       d="M 222.59625,39.14875 90.01375,171.7325 -42.57,39.14875 90.0125,-93.43375 222.59625,39.14875" />
    <g
       id="g3753"
       transform="matrix(0,1.25,1.25,0,-0.0375,0)">
      <text
         transform="matrix(0,1,1,0,43.8037,33.8574)"
         style="font-variant:normal;font-weight:bold;font-size:12px;font-family:'Myriad Pro';-inkscape-font-specification:MyriadPro-Bold;writing-mode:lr-tb;fill:#ffffff;fill-opacity:1;fill-rule:nonzero;stroke:none"
         id="text3755">
        <tspan
           x="0 6.6636 9.7872 16.4508 23.114401 28.0152 35.2668 41.6064 46.818001 50.1096 55.5252 57.9492 64.360802 67.664398 74.003998 84.327599 90.667198 97.625999 102.0336 107.2452 110.3688"
           y="0"
           sodipodi:role="line"
           id="tspan3757">2.00 Basic Elements:</tspan>
      </text>
    </g>
    <g
       id="g3759"
       transform="matrix(0,1.25,1.25,0,-0.0375,0)">
      <text
         transform="matrix(0,1,1,0,56.8037,33.8574)"
         style="font-variant:normal;font-weight:normal;font-size:10px;font-family:'Myriad Pro';-inkscape-font-specification:MyriadPro-Regular;writing-mode:lr-tb;fill:#ffffff;fill-opacity:1;fill-rule:nonzero;stroke:none"
         id="text3761">
        <tspan
           x="0 5.9699998 11.77 19.809999 21.93 26.51 31.999001 37.589001 43.078999 45.199001 50.199001"
           y="0"
           sodipodi:role="line"
           id="tspan3763">ACM Logo –</tspan>
      </text>
    </g>
    <g
       id="g3765"
       transform="matrix(0,1.25,1.25,0,-0.0375,0)">
      <text
         transform="matrix(0,1,1,0,69.8037,33.8574)"
         style="font-variant:normal;font-weight:normal;font-size:10px;font-family:'Myriad Pro';-inkscape-font-specification:MyriadPro-Regular;writing-mode:lr-tb;fill:#ffffff;fill-opacity:1;fill-rule:nonzero;stroke:none"
         id="text3767">
        <tspan
           x="0 5.414 10.228 14.182 16.516001 20.99 23.108999 28.799 34.289001"
           y="0"
           sodipodi:role="line"
           id="tspan3769">Basic Con</tspan>
      </text>
    </g>
    <g
       id="g3771"
       transform="matrix(0,1.25,1.25,0,-0.0375,0)">
      <text
         transform="matrix(0,1,1,0,69.8037,73.6904)"
         style="font-variant:normal;font-weight:normal;font-size:10px;font-family:'Myriad Pro';-inkscape-font-specification:MyriadPro-Regular;writing-mode:lr-tb;fill:#ffffff;fill-opacity:1;fill-rule:nonzero;stroke:none"
         id="text3773">
        <tspan
           x="0"
           y="0"
           id="tspan3775">f</tspan>
      </text>
    </g>
    <g
       id="g3777"
       transform="matrix(0,1.25,1.25,0,-0.0375,0)">
      <text
         transform="matrix(0,1,1,0,69.8037,78.9144)"
         style="font-variant:normal;font-weight:normal;font-size:10px;font-family:'Myriad Pro';-inkscape-font-specification:MyriadPro-Regular;writing-mode:lr-tb;fill:#ffffff;fill-opacity:1;fill-rule:nonzero;stroke:none"
         id="text3779">
        <tspan
           x="0 5.5840001 11.088 14.352 19.166 22.469999 24.804001 30.288"
           y="0"
           sodipodi:role="line"
           id="tspan3781">guration</tspan>
      </text>
    </g>
    <g
       id="g3783"
       transform="matrix(0,1.25,1.25,0,-191.96648,2.0203051)">
      <text
         transform="matrix(0,1,1,0,43.168,576.146)"
         style="font-variant:normal;font-weight:600;font-size:9px;font-family:'Myriad Pro';-inkscape-font-specification:MyriadPro-Semibold;writing-mode:lr-tb;fill:#0491d1;fill-opacity:1;fill-rule:nonzero;stroke:none"
         id="text3785">
        <tspan
           x="0 5.5349998 10.827 18.2673 19.806299 25.0173 27.3204 31.0707 36.188999 40.758301 43.0686 44.931599 47.304901 52.5312 57.172501 62.317799 65.474098 67.775398 70.996498 75.493797 77.356796 82.025101 85.181396 89.750702 94.896004 100.1223 104.6916 107.8146 113.0409"
           y="0"
           sodipodi:role="line"
           id="tspan3787">ACM Visual Identity Standards</tspan>
      </text>
    </g>
  </g>
</svg>
